# This file uses centimeters as units for non-parametric coordinates.

mtllib Kaas Low Poly.mtl
g default
v 0.591570 -0.802470 -1.689424
v -1.689424 -0.802470 0.591570
v 0.591570 0.802470 -1.689424
v -1.689424 0.802470 0.591570
v 1.689424 -0.802470 1.689425
v 1.689424 0.802470 1.689425
vt 0.174781 0.775292
vt 0.443336 0.775292
vt 0.284892 0.998008
vt 0.443336 0.224708
vt 0.174781 0.224708
vt 0.284892 0.001992
vt 0.001401 0.775292
vt 0.701786 0.224708
vt 0.701786 0.775292
vt 0.001401 0.224708
vn -0.707107 0.000000 -0.707107
vn -0.707107 0.000000 -0.707107
vn -0.707107 0.000000 -0.707107
vn -0.707107 0.000000 -0.707107
vn 0.000000 -1.000000 0.000000
vn 0.000000 -1.000000 0.000000
vn 0.000000 -1.000000 0.000000
vn 0.000000 1.000000 0.000000
vn 0.000000 1.000000 0.000000
vn 0.000000 1.000000 0.000000
vn -0.309017 0.000000 0.951057
vn -0.309017 0.000000 0.951057
vn -0.309017 0.000000 0.951057
vn -0.309017 0.000000 0.951057
vn 0.951056 0.000000 -0.309017
vn 0.951056 0.000000 -0.309017
vn 0.951056 0.000000 -0.309017
vn 0.951056 0.000000 -0.309017
s off
g Low_Poly
usemtl lambert7SG
f 3/5/1 1/1/2 2/7/3 4/10/4
f 1/1/5 5/2/6 2/3/7
f 6/4/8 3/5/9 4/6/10
f 6/4/11 4/8/12 2/9/13 5/2/14
f 3/5/15 6/4/16 5/2/17 1/1/18
